<svg width="141" height="139" viewBox="0 0 141 139" fill="none" xmlns="http://www.w3.org/2000/svg">
<ellipse cx="86.1119" cy="124.212" rx="8.92266" ry="12.1673" transform="rotate(-13.3149 86.1119 124.212)" fill="#06D6F4"/>
<ellipse cx="55.2871" cy="124.211" rx="8.92266" ry="12.1673" transform="rotate(13.31 55.2871 124.211)" fill="#6978FB"/>
<ellipse cx="112.023" cy="110.764" rx="8.92266" ry="12.1673" transform="rotate(-40.4437 112.023 110.764)" fill="#06D6F4"/>
<ellipse cx="86.0653" cy="84.8069" rx="8.92266" ry="12.1673" transform="rotate(-40.4437 86.0653 84.8069)" fill="#06D6F4"/>
<ellipse cx="29.2843" cy="110.764" rx="8.92266" ry="12.1673" transform="rotate(40.44 29.2843 110.764)" fill="#6978FB"/>
<ellipse cx="55.2404" cy="84.807" rx="8.92266" ry="12.1673" transform="rotate(40.44 55.2404 84.807)" fill="#6978FB"/>
<ellipse cx="125.592" cy="84.0939" rx="8.92266" ry="12.1673" transform="rotate(-78.9448 125.592 84.0939)" fill="#06D6F4"/>
<ellipse cx="15.2773" cy="84.0947" rx="8.92266" ry="12.1673" transform="rotate(78.94 15.2773 84.0947)" fill="#6978FB"/>
<ellipse cx="126.305" cy="54.4912" rx="8.92266" ry="12.1673" transform="rotate(-108.428 126.305 54.4912)" fill="#02E8CA"/>
<ellipse cx="14.3644" cy="54.4915" rx="8.92266" ry="12.1673" transform="rotate(108.43 14.3644 54.4915)" fill="#1F91F1"/>
<ellipse cx="110.75" cy="27.6994" rx="8.92266" ry="12.1673" transform="rotate(-131.078 110.75 27.6994)" fill="#02E8CA"/>
<ellipse cx="86.4163" cy="53.6562" rx="8.92266" ry="12.1673" transform="rotate(-131.078 86.4163 53.6562)" fill="#02E8CA"/>
<ellipse cx="29.6361" cy="27.6995" rx="8.92266" ry="12.1673" transform="rotate(131.08 29.6361 27.6995)" fill="#1F91F1"/>
<ellipse cx="53.9711" cy="53.6564" rx="8.92266" ry="12.1673" transform="rotate(131.08 53.9711 53.6564)" fill="#1F91F1"/>
<ellipse cx="85.3037" cy="13.3871" rx="8.92266" ry="12.1673" transform="rotate(-171.216 85.3037 13.3871)" fill="#02E8CA"/>
<ellipse cx="56.102" cy="13.3867" rx="8.92266" ry="12.1673" transform="rotate(171.22 56.102 13.3867)" fill="#1F91F1"/>
</svg>
